<?xml version="1.0" encoding="iso-8859-1"?>
<!-- Generator: Adobe Illustrator 19.0.0, SVG Export Plug-In . SVG Version: 6.00 Build 0)  -->
<svg xmlns="http://www.w3.org/2000/svg" xmlns:xlink="http://www.w3.org/1999/xlink" version="1.1" id="Layer_1" x="0px" y="0px" viewBox="0 0 512 512" style="enable-background:new 0 0 512 512;" xml:space="preserve" width="512" height="512">
<g>
	<path d="M508,248l-80-60c-3.03-2.271-7.084-2.637-10.472-0.944C414.14,188.75,412,192.212,412,196v50H266V100h50   c3.788,0,7.25-2.14,8.944-5.528C326.638,91.084,326.272,87.03,324,84L264,4c-1.889-2.518-4.853-4-8-4s-6.111,1.482-8,4l-60,80   c-2.272,3.03-2.638,7.084-0.944,10.472C188.75,97.86,192.212,100,196,100h50v146H100v-50c0-3.788-2.14-7.25-5.528-8.944   C91.084,185.36,87.029,185.729,84,188L4,248c-2.518,1.889-4,4.853-4,8s1.482,6.111,4,8l80,60c3.036,2.277,7.088,2.635,10.472,0.944   C97.86,323.25,100,319.788,100,316v-50h146v146h-50c-3.788,0-7.25,2.14-8.944,5.528c-1.694,3.388-1.328,7.441,0.944,10.472l60,80   c1.889,2.518,4.853,4,8,4s6.111-1.482,8-4l60-80c2.272-3.03,2.638-7.084,0.944-10.472C323.25,414.14,319.788,412,316,412h-50V266   h146v50c0,3.788,2.14,7.25,5.528,8.944c3.377,1.69,7.435,1.334,10.472-0.944l80-60c2.518-1.889,4-4.853,4-8   S510.518,249.889,508,248z M256,26.667L296,80h-80L256,26.667z M80,296l-53.333-40L80,216V296z M256,485.333L216,432h80   L256,485.333z M432,296v-80l53.333,40L432,296z"/>
</g>















</svg>
